classDiagram

class Usuario {
    id
    nome
    email
    status
}

class Aluno
class Professor
class Administrador

class Laboratorio {
    id
    nome
    localizacao
    capacidade
    status
}

class Reserva {
    id
    inicio
    fim
    status
}

class Equipamento {
    id
    nome
    descricao
    quantidade
    status
}

class ReservaEquipamento {
    quantidade
}

class Devolucao {
    id
    data
    observacao
}

class RelatoProblema {
    id
    descricao
    data
    status
}

Usuario <|-- Aluno
Usuario <|-- Professor
Usuario <|-- Administrador

Usuario "1" --> "0..*" Reserva
Laboratorio "1" --> "0..*" Reserva
Professor "1" --> "0..*" Laboratorio
Laboratorio "1" --> "0..*" Equipamento
Reserva "1" --> "0..*" ReservaEquipamento
Equipamento "1" --> "0..*" ReservaEquipamento
Reserva "1" --> "0..1" Devolucao
Usuario "1" --> "0..*" RelatoProblema
Laboratorio "1" --> "0..*" RelatoProblema
Equipamento "0..1" --> "0..*" RelatoProblema
